<svg width="35" height="35" viewBox="0 0 35 35" fill="none" xmlns="http://www.w3.org/2000/svg">
<g clip-path="url(#clip0_60_29)">
<path d="M31.122 21.1258L29.211 20.6708V20.3278C30.457 19.4598 31.269 18.0108 31.269 16.3798V13.8948C31.269 11.2418 29.106 9.07878 26.453 9.07878C25.263 9.07878 24.171 9.51278 23.331 10.2338C22.393 7.93778 20.139 6.3208 17.514 6.3208C14.882 6.3208 12.628 7.94478 11.69 10.2478C10.85 9.51978 9.75099 9.08578 8.55399 9.08578C5.901 9.08578 3.738 11.2488 3.738 13.9018V16.3798C3.738 18.0108 4.557 19.4528 5.796 20.3278V20.6708L3.885 21.1258C1.596 21.6718 0 23.6948 0 26.0398V28.0488C0 28.6438 0.483 29.1268 1.078 29.1268H6.02C6.013 29.2598 6.006 29.3858 6.006 29.5188V33.3898C6.006 33.9848 6.48899 34.4678 7.08399 34.4678H13.552C14.147 34.4678 14.63 33.9848 14.63 33.3898C14.63 32.7948 14.147 32.3118 13.552 32.3118H12.439H10.29H8.16199V29.5188C8.16199 27.4468 9.56899 25.6548 11.592 25.1718L14.546 24.4648L16.52 28.9588C16.695 29.3508 17.08 29.6028 17.507 29.6028C17.934 29.6028 18.319 29.3508 18.494 28.9588L20.468 24.4718L23.408 25.1718C25.424 25.6548 26.838 27.4398 26.838 29.5188V32.3048H21.343C20.748 32.3048 20.265 32.7878 20.265 33.3828C20.265 33.9778 20.748 34.4608 21.343 34.4608H27.916C28.511 34.4608 28.994 33.9778 28.994 33.3828V29.5188C28.994 29.3858 28.987 29.2528 28.98 29.1198H33.936C34.531 29.1198 35.014 28.6368 35.014 28.0418V26.0398C35 23.6948 33.404 21.6718 31.122 21.1258ZM23.786 16.2188C23.786 16.1698 23.793 16.1138 23.793 16.0648V15.1058C23.786 13.7408 23.786 13.6708 24.01 12.8378C24.416 11.8928 25.361 11.2278 26.453 11.2278C27.86 11.2278 29.022 12.3268 29.113 13.7128L29.12 15.8618V16.3728C29.12 17.8428 27.923 19.0328 26.46 19.0328C24.997 19.0328 23.8 17.8358 23.8 16.3728V16.2188H23.786ZM5.887 15.8688L5.894 13.7198C5.985 12.3338 7.13999 11.2348 8.55399 11.2348C9.64599 11.2348 10.591 11.8998 10.997 12.8448C11.214 13.7058 11.214 13.9928 11.214 15.1128V16.3798C11.214 17.8498 10.017 19.0398 8.55399 19.0398C7.08399 19.0398 5.894 17.8428 5.894 16.3798V15.8688H5.887ZM14.084 22.7498C13.811 22.6308 11.627 22.9528 11.627 22.9528L11.081 23.0858C8.96699 23.5898 7.30099 25.0668 6.51 26.9778H2.149V26.0398C2.149 24.6958 3.073 23.5268 4.382 23.2118L7.11899 22.5608C7.60199 22.4418 7.94499 22.0148 7.94499 21.5178V21.1538C8.14099 21.1818 8.34399 21.1958 8.54699 21.1958C8.74999 21.1958 8.95299 21.1818 9.14899 21.1538L9.20499 21.1468C9.95399 21.0278 10.668 20.7478 11.298 20.3278C11.648 20.0828 11.956 19.7958 12.229 19.4738C12.712 20.2158 13.342 20.8458 14.077 21.3288V22.7498H14.084ZM18.753 22.9948L17.493 25.8578L16.233 22.9878V22.2178C16.646 22.3018 17.066 22.3438 17.507 22.3438C17.934 22.3438 18.354 22.3018 18.76 22.2178V22.9948H18.753ZM17.507 20.1948C15.232 20.1948 13.377 18.3398 13.377 16.0648V14.9308V12.7818V12.5998C13.377 10.3248 15.232 8.46978 17.507 8.46978C19.565 8.46978 21.273 9.97478 21.588 11.9418L21.637 14.4688V16.2258C21.553 18.4308 19.733 20.1948 17.507 20.1948ZM32.851 26.9778H28.476C27.685 25.0668 26.019 23.5968 23.898 23.0858L23.359 22.9598C23.359 22.9598 21.189 22.4138 20.909 22.5398V21.3498C21.651 20.8668 22.288 20.2368 22.778 19.4878C23.051 19.8098 23.359 20.0898 23.702 20.3278C24.318 20.7618 25.032 21.0488 25.781 21.1468L25.851 21.1538C26.047 21.1818 26.25 21.1958 26.453 21.1958C26.656 21.1958 26.859 21.1818 27.055 21.1538V21.5178C27.055 22.0148 27.398 22.4488 27.881 22.5608L30.618 23.2188C31.934 23.5338 32.851 24.6958 32.851 26.0468V26.9778Z" fill="url(#paint0_linear_60_29)"/>
<path d="M17.493 4.26991C18.088 4.26991 18.571 3.78691 18.571 3.19191V1.58191C18.571 0.986906 18.088 0.503906 17.493 0.503906C16.898 0.503906 16.415 0.986906 16.415 1.58191V3.19191C16.415 3.78691 16.898 4.26991 17.493 4.26991Z" fill="url(#paint1_linear_60_29)"/>
<path d="M12.0121 5.53668C12.2221 5.74668 12.4951 5.85168 12.7751 5.85168C13.0481 5.85168 13.3281 5.74668 13.5381 5.53668C13.9581 5.11668 13.9581 4.43768 13.5381 4.01768L12.4111 2.89068C11.9911 2.47068 11.3121 2.47068 10.8921 2.89068C10.4721 3.31068 10.4721 3.98968 10.8921 4.40968L12.0121 5.53668Z" fill="url(#paint2_linear_60_29)"/>
<path d="M22.197 5.873C22.47 5.873 22.75 5.768 22.96 5.558L24.08 4.438C24.5 4.018 24.5 3.339 24.08 2.919C23.66 2.499 22.981 2.499 22.561 2.919L21.441 4.039C21.021 4.459 21.021 5.138 21.441 5.558C21.651 5.768 21.924 5.873 22.197 5.873Z" fill="url(#paint3_linear_60_29)"/>
</g>
<defs>
<linearGradient id="paint0_linear_60_29" x1="-6.15982e-05" y1="20.3942" x2="35.0119" y2="20.3942" gradientUnits="userSpaceOnUse">
<stop stop-color="#37DE89"/>
<stop offset="1" stop-color="#15C7A4"/>
</linearGradient>
<linearGradient id="paint1_linear_60_29" x1="16.415" y1="2.3869" x2="18.5709" y2="2.3869" gradientUnits="userSpaceOnUse">
<stop stop-color="#37DE89"/>
<stop offset="1" stop-color="#15C7A4"/>
</linearGradient>
<linearGradient id="paint2_linear_60_29" x1="10.5771" y1="4.21368" x2="13.853" y2="4.21368" gradientUnits="userSpaceOnUse">
<stop stop-color="#37DE89"/>
<stop offset="1" stop-color="#15C7A4"/>
</linearGradient>
<linearGradient id="paint3_linear_60_29" x1="21.126" y1="4.2385" x2="24.3948" y2="4.2385" gradientUnits="userSpaceOnUse">
<stop stop-color="#37DE89"/>
<stop offset="1" stop-color="#15C7A4"/>
</linearGradient>
<clipPath id="clip0_60_29">
<rect width="35" height="35" fill="white"/>
</clipPath>
</defs>
</svg>
