<?xml version="1.0" standalone="yes"?>
<svg xmlns="http://www.w3.org/2000/svg" width="500" height="500">
<path style="fill:#fbf9fa; stroke:none;" d="M0 0L0 500L500 500L500 0L0 0z"/>
<path style="fill:#e066e6; stroke:none;" d="M164 43.4283C128.131 48.5667 101.458 77.3963 74 98.6505C65.5957 105.156 44.7447 115.939 51.5725 129C58.5254 142.3 74.4428 155.341 85 166C88.9549 169.993 92.719 175.611 98.0039 177.91C107.007 181.827 123.277 161.087 126.276 171.02C129.966 183.24 127 200.269 127 213L127 304L127 337C127.002 341.931 126.674 347.137 131.109 350.411C136.948 354.722 147.191 353 154 353L211 353L248 353C253.513 353 260.692 353.942 265.772 351.297C271.539 348.294 268.821 339.932 263.981 337.653C256.379 334.073 245.189 336 237 336L171 336C164.496 336 151.569 338.449 146.148 334.397C142.276 331.502 143 326.258 143 322L143 290L143 178C143 168.476 147.162 145.529 139.581 138.515C127.821 127.632 113.884 157.778 103 157.263C99.046 157.076 95.6763 152.696 93.2855 149.999C87.6201 143.61 67.2214 128.855 75.1242 120.039C82.378 111.948 92.5098 105.729 101 98.9969C121.293 82.9056 140.451 63.7794 167 59.5903C173.353 58.5879 181.683 56.5956 187.996 58.5139C196.28 61.0311 202.222 73.1503 209 78.4822C223.182 89.6387 240.564 91.731 258 90.9606C270.576 90.405 283.49 84.8081 293 76.6991C303.597 67.6631 307.381 56.4367 323 58.2855C357.144 62.3271 379.003 83.0037 405 103.8C409.949 107.759 428.572 118.195 427.673 125.424C426.631 133.794 409.736 147.096 403.91 152.956C401.565 155.315 398.601 158.088 395 157.033C386.402 154.514 368.438 126.374 359.009 140.133C354.321 146.975 357 161.032 357 169L357 241C357 248.154 353.698 269.906 365.995 268.713C375.84 267.758 373 251.664 373 245L373 189C373 183.613 370.988 172.713 374.858 168.376C377.386 165.542 380.831 168.54 383 170.291C387.808 174.173 393.069 180.362 400 178.562C405.266 177.196 409.322 171.684 413 168C422.002 158.984 430.144 149.138 439.014 140C443.057 135.835 448.805 131.072 449.768 125C450.724 118.974 446.189 114.982 442 111.439C432.282 103.219 422.065 95.4413 412 87.6505C383.721 65.7615 359.666 43 322 43C315.619 43 307.005 41.5189 301.015 44.0092C294.45 46.7381 291.568 55.0405 286.907 59.9854C277.397 70.0734 262.087 77.0222 248 75.6999C234.356 74.4191 222.706 70.0348 213.04 59.9962C208.544 55.3262 205.81 47.5327 199.96 44.4568C191.719 40.1242 173.074 42.1283 164 43.4283z"/>
<path style="fill:#fbf9fa; stroke:none;" d="M132 150L132 294L132 331C132 334.731 130.577 342.302 133.028 345.397C136.475 349.749 153.761 347 159 347L235 347C242.333 347 249.667 347.05 256.999 346.999C258.639 346.988 263.594 347.5 263.654 344.83C263.72 341.881 258.865 342.04 257 342.005C249.339 341.86 241.662 342 234 342L137 342L137 190L137 154L135.397 142.176L126 147.272L103 168L102 168C93.9118 156.518 82.5037 146.298 72.9105 136C70.4002 133.305 62.1736 127.632 62.7701 123.464C63.1803 120.597 67.9523 118.037 70 116.4L92 99C120.739 76.0078 150.602 46.4897 190.957 53.1481C197.475 54.2236 202.214 66.4322 207.015 70.8264C218.635 81.463 234.264 87.1067 250 86.9954C265.22 86.8877 280.482 81.796 291.985 71.6999C297.137 67.1786 302.211 54.2755 309.043 53.1481C349.32 46.5025 379.317 76.0529 408 99L430 116.4C432.104 118.084 436.808 120.667 437.23 123.615C437.809 127.663 429.539 133.37 427.09 136C417.479 146.317 406.108 156.49 398 168L397 168L374 147.282L364.603 142.176L363 150L363 172L363 264C371.524 262.577 368 243.827 368 237L368 150C374.97 155.306 381.355 161.423 388 167.13C390.636 169.394 394.188 173.473 397.999 173.379C402.632 173.265 406.192 166.977 409.039 164C418.169 154.452 426.915 144.546 436.039 135C438.856 132.053 446.351 126.868 444.744 122.039C443.558 118.478 438.783 115.981 436 113.789C428.322 107.743 420.632 101.703 413 95.6003C384.793 73.0445 359.188 48 321 48C315.781 48 309.156 46.9142 304.105 48.3179C298.469 49.8842 294.047 60.8164 289.961 64.9854C281.061 74.065 268.738 80.0177 256 80.9105C239.829 82.0439 224.137 78.1176 212.001 66.9066C207.273 62.5392 201.881 49.9816 195.895 48.3179C190.844 46.9142 184.219 48 179 48C141.459 48 116.838 71.9225 89 93.9969C78.922 101.988 64.1648 109.944 56.3619 120.171C52.3362 125.447 59.6493 130.531 62.9606 134C72.0786 143.552 80.8311 153.452 89.9606 163C93.0131 166.192 96.4065 172.213 101.001 173.252C104.821 174.116 108.441 170.203 111 167.949C117.882 161.887 124.704 155.554 132 150z"/>
<path style="fill:#92dfee; stroke:none;" d="M178 58L178 59L181 60C171.808 75.0046 192.673 90.6579 204 97.7708C231.646 115.131 270.965 114.576 298 96.3287C308.81 89.0324 327.879 74.494 319 60L322 59C308.943 53.5213 302.06 67.4413 294 74.9097C284.524 83.6908 271.9 89.5396 259 90.8295C242.663 92.463 225.587 89.5586 212 79.9568C198.784 70.6175 195.441 58 178 58z"/>
<path style="fill:#fbf9fa; stroke:none;" d="M190 61C217.167 104.596 283.023 105.486 310 61C300.233 66.2566 294.115 77.9058 284 83.7678C262.078 96.472 232.939 95.562 212.015 81.3326C203.634 75.6334 198.392 66.2815 190 61M318 65C308.445 66.5417 299.626 82.8791 291 88.4521C264.648 105.478 227.484 103.781 203 84.1921C197.073 79.4504 192.983 73.7411 187.997 68.1489C186.831 66.8409 182.802 63.6732 182.16 67.3225C181.581 70.6184 185.581 74.7019 187.465 77C194.233 85.2589 202.51 92.0193 212 96.8904C238.639 110.564 273.757 107.982 298 90.5717C306.055 84.7866 317.291 75.5695 318 65z"/>
<path style="fill:#e066e6; stroke:none;" d="M284 142C266.222 148.048 275.044 168.035 292 164C296.966 183.646 319.596 177.442 316 158C324.714 156.422 332.046 147.507 325.196 139.329C322.048 135.571 317.973 136.331 314.275 133.976C308.718 130.438 308.55 123.537 301 121.558C288.249 118.216 280.701 130.836 284 142z"/>
<path style="fill:#fbf9fa; stroke:none;" d="M291 125L292 126L291 125M289.333 126.667L289.667 127.333L289.333 126.667z"/>
<path style="fill:#92dfee; stroke:none;" d="M290 126L290 127L292 128L290 130C291.733 128.106 292.092 127.582 290 126z"/>
<path style="fill:#596a6a; stroke:none;" d="M292 126L291 130C293.841 129.391 294.742 127.572 292 126M290.667 127.333L291.333 127.667L290.667 127.333M299 128L299 130L301 130L301 128L299 128z"/>
<path style="fill:#fbf9fa; stroke:none;" d="M289 130L290 131L289 130z"/>
<path style="fill:#596a6a; stroke:none;" d="M297 137L297 140L298 140L297 137M302.333 137.667L302.667 138.333L302.333 137.667M306 139L305 141L306 139M293 140L295 142L293 140z"/>
<path style="fill:#fbf9fa; stroke:none;" d="M320 141L323 145L320 141z"/>
<path style="fill:#596a6a; stroke:none;" d="M300 144C295.909 144.107 294.483 146.362 293 150L294 153L298 156L303 156L304 156L304 153L305 153C306.312 156.018 311.607 143.972 304 145C302.695 142.92 301.819 142.059 300 144M308 142L309 143L308 142z"/>
<path style="fill:#92dfee; stroke:none;" d="M299 143L300 144L299 143M302 143L303 144L302 143z"/>
<path style="fill:#4f85e6; stroke:none;" d="M304.333 143.667L304.667 144.333L304.333 143.667z"/>
<path style="fill:#596a6a; stroke:none;" d="M322 143L322 148C324.682 146.228 324.682 144.772 322 143M289 144L290 145L289 144M312.667 144.333L313.333 144.667L312.667 144.333z"/>
<path style="fill:#92dfee; stroke:none;" d="M321 144L323 147L321 144z"/>
<path style="fill:#596a6a; stroke:none;" d="M285.333 145.667L285.667 146.333L285.333 145.667M291.667 145.333L292.333 145.667L291.667 145.333z"/>
<path style="fill:#92dfee; stroke:none;" d="M295 145L296 146L295 145M297.333 145.667L297.667 146.333L297.333 145.667z"/>
<path style="fill:#4f85e6; stroke:none;" d="M302.333 145.667L302.667 146.333L302.333 145.667z"/>
<path style="fill:#596a6a; stroke:none;" d="M310 145L311 146L310 145M320 145L321 146L320 145z"/>
<path style="fill:#4f85e6; stroke:none;" d="M306 146L307 147L306 146z"/>
<path style="fill:#fbf9fa; stroke:none;" d="M321 146L322 147L321 146z"/>
<path style="fill:#92dfee; stroke:none;" d="M295 147L296 148L295 147M304 147L305 148L304 147M306 147L307 148L306 147z"/>
<path style="fill:#fbf9fa; stroke:none;" d="M319 147L320 148L319 147z"/>
<path style="fill:#596a6a; stroke:none;" d="M288 148L288 149L291 149L288 148z"/>
<path style="fill:#4f85e6; stroke:none;" d="M295 148L296 149L295 148M306 148L307 149L306 148M297 149L296 151L298 151L297 149z"/>
<path style="fill:#92dfee; stroke:none;" d="M300 149L301 150L300 149M303 149L304 150L303 149z"/>
<path style="fill:#596a6a; stroke:none;" d="M312 149L313 150L312 149z"/>
<path style="fill:#4f85e6; stroke:none;" d="M294.333 150.667L294.667 151.333L294.333 150.667z"/>
<path style="fill:#92dfee; stroke:none;" d="M305.333 150.667L305.667 151.333L305.333 150.667z"/>
<path style="fill:#4f85e6; stroke:none;" d="M307 151L308 152L307 151z"/>
<path style="fill:#596a6a; stroke:none;" d="M288 153L288 154L292 153L288 153z"/>
<path style="fill:#92dfee; stroke:none;" d="M295.333 152.667L295.667 153.333L295.333 152.667M299.333 152.667L299.667 153.333L299.333 152.667M302 152L303 153L302 152z"/>
<path style="fill:#fbf9fa; stroke:none;" d="M280 153L282 155L282 153L280 153z"/>
<path style="fill:#92dfee; stroke:none;" d="M304.333 153.667L304.667 154.333L304.333 153.667z"/>
<path style="fill:#596a6a; stroke:none;" d="M309 153L312 155L312 154L309 153M315.667 153.333L316.333 153.667L315.667 153.333z"/>
<path style="fill:#fbf9fa; stroke:none;" d="M278 154L278 157L279 157L278 154z"/>
<path style="fill:#4f85e6; stroke:none;" d="M296 154L298 156L296 154z"/>
<path style="fill:#92dfee; stroke:none;" d="M297 154L298 155L297 154z"/>
<path style="fill:#4f85e6; stroke:none;" d="M302 154L303 155L302 154z"/>
<path style="fill:#92dfee; stroke:none;" d="M279 155L279 158L281 158L281 155L279 155z"/>
<path style="fill:#596a6a; stroke:none;" d="M281 155L279 158L279 159L284 155L281 155z"/>
<path style="fill:#92dfee; stroke:none;" d="M299 155L300 156L299 155z"/>
<path style="fill:#4f85e6; stroke:none;" d="M300 155L301 156L300 155z"/>
<path style="fill:#92dfee; stroke:none;" d="M302 155L303 156L302 155z"/>
<path style="fill:#fbf9fa; stroke:none;" d="M280 156L281 157L280 156z"/>
<path style="fill:#596a6a; stroke:none;" d="M291.667 156.333L292.333 156.667L291.667 156.333M307 156L310 159L307 156M296 157L295 159L296 157M304 158L305 162L306 162L304 158M300 159L301 160L300 159M295.667 166.333L296.333 166.667L295.667 166.333M305 172L307 168C303.24 167.42 301.444 169.647 305 172z"/>
<path style="fill:#fbf9fa; stroke:none;" d="M307.333 168.667L307.667 169.333L307.333 168.667z"/>
<path style="fill:#92dfee; stroke:none;" d="M305 169L305 172L306 172L307 169L305 169z"/>
<path style="fill:#fbf9fa; stroke:none;" d="M305 170L306 171L305 170M308.333 170.667L308.667 171.333L308.333 170.667M306.333 171.667L306.667 172.333L306.333 171.667z"/>
<path style="fill:#92dfee; stroke:none;" d="M190 190.725C183.578 190.991 167.712 199.867 177.304 207.138C182.575 211.134 189.135 204.973 195 206.653C203.237 209.012 208.709 214.897 218 213.815C225.406 212.952 231.682 205.815 239 206.307C248.008 206.912 254.09 214.782 264 213.823C271.382 213.108 276.849 206.788 284 206.307C297.558 205.396 307.434 221.683 321.772 209.211C325.799 205.708 326.301 197.691 319.981 196.358C314.78 195.262 310.265 199.847 305 198.285C299.644 196.697 295.654 192.341 290 191.329C278.168 189.213 271.142 199.178 261 198.678C251.641 198.217 245.54 190.439 235 191.043C227.453 191.476 221.421 199.543 214 198.512C205.328 197.308 199.586 190.328 190 190.725z"/>
<path style="fill:#fbf9fa; stroke:none;" d="M188 195.529C186.16 195.954 174.165 202.435 180.337 204.172C185.033 205.493 189.545 199.41 195 200.844C202.057 202.699 206.194 209.291 214 209.787C223.417 210.386 228.469 201.955 237 200.626C245.875 199.243 251.915 209.808 261 209.819C270.105 209.831 275.532 200.969 284 200.515C296.113 199.864 306.811 218.538 319.663 205.447C320.889 204.198 322.1 201.514 319.663 200.747C315.682 199.494 310.754 204.458 306 203.667C298.552 202.426 293.865 195.646 286 195.097C276.508 194.435 272.322 202.367 264 203.768C254.538 205.36 248.396 195.27 239 195.055C229.755 194.843 224.582 203.49 216 203.852C205.49 204.294 199.702 192.829 188 195.529z"/>
<path style="fill:#92dfee; stroke:none;" d="M177 224.471C171.108 225.513 157.139 233.176 165.434 240.397C170.4 244.719 176.645 238.951 182 239.823C189.843 241.101 195.448 247.819 204 247.819C212.588 247.819 218.093 240.603 226 239.718C233.815 238.842 240.811 247.279 249 247.787C258.264 248.362 264.47 240.038 273 239.72C280.551 239.438 286.992 247.29 295 247.787C303.776 248.332 309.193 241.916 317 239.947C322.699 238.509 329.363 244.683 334.566 240.258C344.58 231.742 324.321 223.821 318 224.213C309.992 224.71 303.551 232.562 296 232.28C287.009 231.945 280.879 223.258 271 224.443C263.477 225.345 257.127 232.232 250 232.33C241.534 232.447 235.259 223.701 226 224.21C217.814 224.66 211.628 232.224 204 232.33C194.369 232.464 187.775 222.567 177 224.471z"/>
<path style="fill:#fbf9fa; stroke:none;" d="M168 239C172.624 237.537 176.926 233.751 182 234.373C190.71 235.44 195.484 243.376 205 242.959C213.321 242.595 218.211 235.187 226 234.423C233.865 233.652 239.334 241.851 247 242.815C257.875 244.183 263.295 234.374 273 234.37C280.572 234.367 285.554 241.876 293 242.815C303.683 244.162 307.713 236.529 317 234.549C322.217 233.436 325.116 237.578 329.851 237.867C332.092 238.004 332.883 235.997 331.914 234.168C323.499 218.289 304.542 238.87 295 237.63C286.288 236.499 281.516 228.624 272 229.041C263.336 229.421 257.511 238.733 249 237.63C239.981 236.462 234.947 228.519 225 229.044C216.951 229.469 211.86 237.917 204 237.71C201.527 237.645 199.134 236.65 197 235.471C191.062 232.189 164.191 221.858 168 239z"/>
<path style="fill:#e066e6; stroke:none;" d="M261 365C271.337 365.974 278.191 352.694 287 347.9C298.849 341.453 311.956 342 325 342L325 303C325 298.715 323.548 291.034 326.028 287.318C328.718 283.286 337.836 285 342 285L383 285C386.88 285 394.386 283.593 397.397 286.603C401.694 290.901 399 306.232 399 312L399 369C399 375.704 401.099 386.661 398.397 392.852C396.799 396.51 392.31 395.993 389 396L362 396L289 396C282.163 396 267.101 398.833 261.318 394.972C257.259 392.262 259.829 384.974 260 381L255 380C253.505 386.281 252.225 396.184 259.044 399.821C266.617 403.86 281.541 401 290 401L365 401C374.09 401 398.264 405.343 403.231 395.895C407.074 388.588 405 377.008 405 369L405 309C405 301.426 407.474 288.312 401.581 282.419C396.96 277.798 388.923 279 383 279L345 279C339.036 279 331.656 277.869 326.015 280.148C319.326 282.851 319.01 289.76 319 296C318.985 305.287 322.717 324.765 317.821 332.772C314.336 338.472 299.078 337.339 293 339.205C278.791 343.569 268.165 352.13 261 365z"/>
<path style="fill:#fbf9fa; stroke:none;" d="M325 342C303.734 342 279.256 343.302 268 365L293 350.873L316 347L328.397 345.972L330 332L330 290L394 290L394 391L295 391C286.109 391 263.805 395.677 265 383L260 383C259.378 386.353 257.299 393.419 261.318 395.397C268.385 398.874 283.146 396 291 396L364 396L390 396C392.704 395.994 396.95 396.622 398.397 393.682C401.236 387.911 399 376.381 399 370L399 312C399 306.154 401.685 291.291 397.972 286.603C395.343 283.284 385.786 285 382 285L340 285C336.524 285 328.468 283.522 326.028 286.603C323.456 289.85 325 298.071 325 302L325 342z"/>
<path style="fill:#e066e6; stroke:none;" d="M330 290L330 331C330 334.88 331.407 342.386 328.397 345.397C324.667 349.126 313.881 346.825 309 347.039C296.136 347.603 279.756 353.659 274 366C285.085 363.903 292.716 355.495 304 353.465C312.441 351.945 328.247 356.545 333.697 347.811C339.433 338.617 335.999 320.451 336 310C336 305.066 335.051 298.182 341.044 296.434C351.169 293.479 365.46 295.982 376 296C379.728 296.006 384.714 295.535 386.972 299.228C389.141 302.775 388 309.009 388 313L388 346C388 354.82 392.282 375.623 386.262 382.566C381.349 388.232 362.959 385 356 385C325.746 385 295.342 386.823 266 381C260.333 396.161 284.363 391 294 391L394 391L394 290L330 290z"/>
<path style="fill:#fbf9fa; stroke:none;" d="M282 365L388 365L388 317C388 312.151 389.821 302.573 386.972 298.434C384.746 295.198 379.373 296.001 376 296L348 296C344.624 296.001 339.403 295.203 337.179 298.434C328.215 311.458 344.872 337.516 331.656 349.428C325.741 354.759 315.266 352.834 308 353.015C298.386 353.254 287.956 357.283 282 365z"/>
<path style="fill:#92dfee; stroke:none;" d="M254 383L260 365C250.232 365.737 248.792 376.001 254 383z"/>
<path style="fill:#4f85e6; stroke:none;" d="M261 379L265 382C289.288 380.657 313.485 380 338 380C355.14 380 372.451 381.515 389 377C388.57 364.054 370.063 367 361 367C337.344 367 313.652 367.391 290 366.995C281.072 366.846 269.718 363.192 261.015 365.607C250.31 368.579 255.749 384.772 261 379z"/>
<path style="fill:#92dfee; stroke:none;" d="M267 365L267 367L273 366L267 365M282 365L282 366C289.717 368.281 298.982 367 307 367C332.016 367 364.724 361.453 388 371C389.261 361.369 370.512 365 364 365L282 365M258 371L257 373L258 371z"/>
<path style="fill:#fbf9fa; stroke:none;" d="M257 373L257 374C265.121 378.334 277.933 376 287 376L355 376C361.69 376 381.552 379.376 384 372C373.883 369.591 362.363 371 352 371L292 371C281.73 371 266.168 368.107 257 373z"/>
<path style="fill:#92dfee; stroke:none;" d="M382 371L383 372L382 371M257 374L258 375L257 374M258 375L259 376L258 375M273 383L361 383C368.448 383 387.232 386.851 388 377C361.646 384.191 330.333 380 303 380C295.863 380 277.424 376.738 273 383M261 379L260 383L266 380L261 379z"/>
<path style="fill:#fbf9fa; stroke:none;" d="M273 383L273 384C289.343 387.891 309.218 385 326 385C345.223 385 368.293 388.454 387 384L352 383L273 383z"/>
<path style="fill:#e066e6; stroke:none;" d="M85 471C88.2938 482.126 112.752 483.998 116.485 471.96C121.314 456.391 99.6264 459.87 93.3225 452.772C87.389 446.091 98.2946 440.995 103.996 442.576C108.405 443.799 110.332 448.076 115 448C109.827 438.568 84.3556 437.237 86.4884 451.996C88.2758 464.365 106.102 458.205 111.149 467.108C113.796 471.777 107.998 476.298 104 477.427C96.7304 479.48 90.6829 474.708 85 471M138 478L138 479L149 479L149 478C138.494 471.829 159.848 468.471 164.867 470.603C168.552 472.169 169.016 475.91 166 478L166 479L180 479L180 478C169.123 474.19 164.661 450.848 160 441C147.38 447.772 151.482 471.369 138 478M201 441L201 442C208.676 446.709 207.259 473.292 200 478L200 479L211 479L211 478C203.93 471.631 207 456.876 207 448L208 448C208.833 452.685 215.515 474.364 221.025 474.364C226.866 474.364 232.855 452.832 234 448L235 448C235 456.377 238.016 471.628 232 478L232 479L244 479L244 478L240 477C240 468.48 236.089 446.853 244 442L244 441C231.337 441.01 225.957 458.636 224 470C214.667 460.686 217.095 441.057 201 441M265 441L265 442C270.924 447.337 272.603 473.808 265 478L265 479L277 479L277 478C270.354 471.492 274 451.952 274 443C279.14 443.001 284.525 442.617 288.892 445.854C301.591 455.268 285.503 464.973 276 465L276 467C286.709 466.993 310.731 457.199 293.945 444.652C286.267 438.913 273.983 441 265 441M319 441L319 442C325.95 445.833 325.67 473.909 319 478L319 479L351 479L351 471L350 471C344.728 478.841 336.511 477 328 477C328 468.48 324.089 446.853 332 442L319 441M373 441L373 442C381.248 445.857 401.247 470.695 388 478L388 479L400 479L400 478C386.628 470.626 406.727 445.869 415 442L415 441L405 441L405 442L408 443L396 461L395 461L383 443L387 442L373 441z"/>
<path style="fill:#fbf9fa; stroke:none;" d="M156 448L148 469L166 469C164.521 462.775 161.404 451.687 156 448z"/>
</svg>
