<?xml version="1.0" encoding="UTF-8"?>
<svg xmlns="http://www.w3.org/2000/svg" xmlns:xlink="http://www.w3.org/1999/xlink" width="16px" height="16px" viewBox="0 0 16 16" version="1.1">
<g id="surface1">
<rect x="0" y="0" width="16" height="16" style="fill:rgb(98.431373%,97.647059%,98.039216%);fill-opacity:1;stroke:none;"/>
<path style=" stroke:none;fill-rule:nonzero;fill:rgb(87.843137%,40%,90.196078%);fill-opacity:1;" d="M 5.246094 1.390625 C 4.101562 1.554688 3.246094 2.476562 2.367188 3.15625 C 2.097656 3.363281 1.433594 3.710938 1.648438 4.128906 C 1.871094 4.554688 2.382812 4.972656 2.71875 5.3125 C 2.847656 5.441406 2.96875 5.621094 3.136719 5.691406 C 3.425781 5.820312 3.945312 5.15625 4.039062 5.472656 C 4.160156 5.863281 4.0625 6.410156 4.0625 6.816406 L 4.0625 10.785156 C 4.0625 10.941406 4.054688 11.109375 4.195312 11.214844 C 4.382812 11.351562 4.710938 11.296875 4.929688 11.296875 L 7.9375 11.296875 C 8.113281 11.296875 8.34375 11.324219 8.503906 11.242188 C 8.6875 11.144531 8.601562 10.878906 8.449219 10.804688 C 8.203125 10.691406 7.847656 10.753906 7.585938 10.753906 L 5.472656 10.753906 C 5.265625 10.753906 4.851562 10.832031 4.675781 10.699219 C 4.554688 10.609375 4.574219 10.441406 4.574219 10.304688 L 4.574219 5.695312 C 4.574219 5.390625 4.710938 4.65625 4.464844 4.433594 C 4.089844 4.085938 3.644531 5.050781 3.296875 5.03125 C 3.167969 5.027344 3.0625 4.886719 2.984375 4.800781 C 2.804688 4.59375 2.152344 4.125 2.402344 3.839844 C 2.636719 3.582031 2.960938 3.382812 3.230469 3.167969 C 3.882812 2.652344 4.496094 2.039062 5.34375 1.90625 C 5.546875 1.875 5.8125 1.8125 6.015625 1.871094 C 6.28125 1.953125 6.472656 2.339844 6.6875 2.511719 C 7.140625 2.867188 7.699219 2.933594 8.257812 2.910156 C 8.660156 2.894531 9.070312 2.714844 9.375 2.453125 C 9.714844 2.164062 9.835938 1.804688 10.335938 1.863281 C 11.429688 1.996094 12.128906 2.65625 12.960938 3.320312 C 13.117188 3.449219 13.714844 3.78125 13.683594 4.011719 C 13.652344 4.28125 13.113281 4.707031 12.925781 4.894531 C 12.851562 4.96875 12.753906 5.058594 12.640625 5.023438 C 12.363281 4.945312 11.789062 4.042969 11.488281 4.484375 C 11.339844 4.703125 11.425781 5.152344 11.425781 5.40625 L 11.425781 7.710938 C 11.425781 7.941406 11.316406 8.636719 11.710938 8.597656 C 12.027344 8.566406 11.9375 8.054688 11.9375 7.839844 L 11.9375 6.046875 C 11.9375 5.875 11.871094 5.527344 11.996094 5.386719 C 12.078125 5.296875 12.1875 5.394531 12.257812 5.449219 C 12.410156 5.574219 12.578125 5.773438 12.800781 5.714844 C 12.96875 5.671875 13.097656 5.492188 13.214844 5.375 C 13.503906 5.085938 13.765625 4.773438 14.046875 4.480469 C 14.179688 4.347656 14.363281 4.195312 14.390625 4 C 14.421875 3.808594 14.277344 3.679688 14.144531 3.566406 C 13.832031 3.304688 13.507812 3.054688 13.183594 2.804688 C 12.277344 2.105469 11.507812 1.375 10.304688 1.375 C 10.101562 1.375 9.824219 1.328125 9.632812 1.410156 C 9.421875 1.496094 9.332031 1.761719 9.179688 1.917969 C 8.875 2.242188 8.386719 2.464844 7.9375 2.421875 C 7.5 2.382812 7.125 2.242188 6.816406 1.917969 C 6.671875 1.769531 6.585938 1.519531 6.398438 1.421875 C 6.136719 1.285156 5.539062 1.347656 5.246094 1.390625 Z M 5.246094 1.390625 "/>
<path style=" stroke:none;fill-rule:nonzero;fill:rgb(98.431373%,97.647059%,98.039216%);fill-opacity:1;" d="M 4.222656 4.800781 L 4.222656 10.59375 C 4.222656 10.710938 4.179688 10.953125 4.257812 11.050781 C 4.367188 11.191406 4.921875 11.105469 5.089844 11.105469 L 7.519531 11.105469 C 7.753906 11.105469 7.988281 11.105469 8.222656 11.105469 C 8.277344 11.105469 8.433594 11.121094 8.4375 11.035156 C 8.4375 10.941406 8.285156 10.945312 8.222656 10.945312 C 7.980469 10.941406 7.734375 10.945312 7.488281 10.945312 L 4.382812 10.945312 L 4.382812 4.929688 L 4.332031 4.550781 L 4.03125 4.710938 L 3.296875 5.375 L 3.265625 5.375 C 3.003906 5.007812 2.640625 4.679688 2.332031 4.351562 C 2.253906 4.265625 1.988281 4.085938 2.007812 3.949219 C 2.023438 3.859375 2.175781 3.777344 2.238281 3.726562 L 2.945312 3.167969 C 3.863281 2.433594 4.820312 1.488281 6.109375 1.699219 C 6.320312 1.734375 6.472656 2.125 6.625 2.265625 C 6.996094 2.605469 7.496094 2.789062 8 2.785156 C 8.488281 2.78125 8.976562 2.617188 9.34375 2.292969 C 9.507812 2.148438 9.671875 1.738281 9.890625 1.699219 C 11.179688 1.488281 12.136719 2.433594 13.054688 3.167969 L 13.761719 3.726562 C 13.828125 3.777344 13.976562 3.863281 13.992188 3.957031 C 14.011719 4.085938 13.746094 4.269531 13.667969 4.351562 C 13.359375 4.683594 12.996094 5.007812 12.734375 5.375 L 12.703125 5.375 L 11.96875 4.714844 L 11.667969 4.550781 L 11.617188 4.800781 L 11.617188 8.449219 C 11.890625 8.402344 11.777344 7.800781 11.777344 7.585938 L 11.777344 4.800781 C 12 4.96875 12.203125 5.164062 12.414062 5.347656 C 12.5 5.421875 12.613281 5.550781 12.734375 5.546875 C 12.882812 5.542969 13 5.34375 13.089844 5.246094 C 13.382812 4.941406 13.660156 4.625 13.953125 4.320312 C 14.042969 4.226562 14.285156 4.058594 14.230469 3.90625 C 14.195312 3.792969 14.042969 3.710938 13.953125 3.640625 C 13.707031 3.449219 13.460938 3.253906 13.214844 3.058594 C 12.3125 2.335938 11.492188 1.535156 10.273438 1.535156 C 10.105469 1.535156 9.894531 1.5 9.730469 1.546875 C 9.550781 1.597656 9.410156 1.945312 9.277344 2.078125 C 8.992188 2.371094 8.601562 2.5625 8.191406 2.589844 C 7.675781 2.625 7.171875 2.5 6.785156 2.140625 C 6.632812 2 6.460938 1.597656 6.269531 1.546875 C 6.105469 1.5 5.894531 1.535156 5.726562 1.535156 C 4.527344 1.535156 3.738281 2.300781 2.847656 3.007812 C 2.527344 3.261719 2.054688 3.519531 1.804688 3.84375 C 1.675781 4.015625 1.910156 4.175781 2.015625 4.289062 C 2.304688 4.59375 2.585938 4.910156 2.878906 5.214844 C 2.976562 5.316406 3.085938 5.511719 3.230469 5.542969 C 3.355469 5.570312 3.46875 5.445312 3.550781 5.375 C 3.773438 5.179688 3.992188 4.976562 4.222656 4.800781 Z M 4.222656 4.800781 "/>
<path style=" stroke:none;fill-rule:nonzero;fill:rgb(57.254902%,87.45098%,93.333333%);fill-opacity:1;" d="M 5.695312 1.855469 L 5.695312 1.886719 L 5.792969 1.921875 C 5.496094 2.398438 6.164062 2.902344 6.527344 3.128906 C 7.414062 3.683594 8.671875 3.667969 9.535156 3.082031 C 9.882812 2.847656 10.492188 2.382812 10.207031 1.921875 L 10.304688 1.886719 C 9.886719 1.710938 9.664062 2.15625 9.40625 2.398438 C 9.105469 2.679688 8.699219 2.867188 8.289062 2.90625 C 7.765625 2.957031 7.21875 2.867188 6.785156 2.558594 C 6.359375 2.257812 6.253906 1.855469 5.695312 1.855469 Z M 5.695312 1.855469 "/>
<path style=" stroke:none;fill-rule:nonzero;fill:rgb(98.431373%,97.647059%,98.039216%);fill-opacity:1;" d="M 6.078125 1.953125 C 6.949219 3.347656 9.058594 3.375 9.921875 1.953125 C 9.609375 2.121094 9.410156 2.492188 9.089844 2.679688 C 8.386719 3.085938 7.453125 3.058594 6.785156 2.601562 C 6.515625 2.421875 6.347656 2.121094 6.078125 1.953125 M 10.175781 2.078125 C 9.871094 2.128906 9.589844 2.652344 9.3125 2.832031 C 8.46875 3.375 7.28125 3.320312 6.496094 2.695312 C 6.304688 2.542969 6.175781 2.359375 6.015625 2.179688 C 5.980469 2.140625 5.851562 2.039062 5.828125 2.15625 C 5.8125 2.261719 5.9375 2.390625 6 2.464844 C 6.214844 2.726562 6.480469 2.945312 6.785156 3.101562 C 7.636719 3.539062 8.761719 3.457031 9.535156 2.898438 C 9.792969 2.714844 10.152344 2.417969 10.175781 2.078125 Z M 10.175781 2.078125 "/>
<path style=" stroke:none;fill-rule:nonzero;fill:rgb(87.843137%,40%,90.196078%);fill-opacity:1;" d="M 9.089844 4.542969 C 8.519531 4.738281 8.800781 5.378906 9.34375 5.246094 C 9.503906 5.875 10.226562 5.679688 10.113281 5.054688 C 10.390625 5.003906 10.625 4.71875 10.40625 4.457031 C 10.304688 4.339844 10.175781 4.363281 10.058594 4.289062 C 9.878906 4.175781 9.875 3.953125 9.632812 3.890625 C 9.222656 3.78125 8.984375 4.1875 9.089844 4.542969 Z M 9.089844 4.542969 "/>
<path style=" stroke:none;fill-rule:nonzero;fill:rgb(98.431373%,97.647059%,98.039216%);fill-opacity:1;" d="M 9.3125 4 L 9.34375 4.03125 L 9.3125 4 M 9.257812 4.054688 L 9.269531 4.074219 Z M 9.257812 4.054688 "/>
<path style=" stroke:none;fill-rule:nonzero;fill:rgb(57.254902%,87.45098%,93.333333%);fill-opacity:1;" d="M 9.28125 4.03125 L 9.28125 4.0625 L 9.34375 4.097656 L 9.28125 4.160156 C 9.335938 4.097656 9.347656 4.082031 9.28125 4.03125 Z M 9.28125 4.03125 "/>
<path style=" stroke:none;fill-rule:nonzero;fill:rgb(34.901961%,41.568627%,41.568627%);fill-opacity:1;" d="M 9.34375 4.03125 L 9.3125 4.160156 C 9.402344 4.140625 9.433594 4.082031 9.34375 4.03125 M 9.300781 4.074219 L 9.324219 4.085938 L 9.300781 4.074219 M 9.566406 4.097656 L 9.566406 4.160156 L 9.632812 4.160156 L 9.632812 4.097656 Z M 9.566406 4.097656 "/>
<path style=" stroke:none;fill-rule:nonzero;fill:rgb(98.431373%,97.647059%,98.039216%);fill-opacity:1;" d="M 9.246094 4.160156 L 9.28125 4.191406 Z M 9.246094 4.160156 "/>
<path style=" stroke:none;fill-rule:nonzero;fill:rgb(34.901961%,41.568627%,41.568627%);fill-opacity:1;" d="M 9.503906 4.382812 L 9.503906 4.480469 L 9.535156 4.480469 L 9.503906 4.382812 M 9.675781 4.40625 L 9.683594 4.425781 L 9.675781 4.40625 M 9.792969 4.449219 L 9.761719 4.511719 L 9.792969 4.449219 M 9.375 4.480469 L 9.441406 4.542969 Z M 9.375 4.480469 "/>
<path style=" stroke:none;fill-rule:nonzero;fill:rgb(98.431373%,97.647059%,98.039216%);fill-opacity:1;" d="M 10.238281 4.511719 L 10.335938 4.640625 Z M 10.238281 4.511719 "/>
<path style=" stroke:none;fill-rule:nonzero;fill:rgb(34.901961%,41.568627%,41.568627%);fill-opacity:1;" d="M 9.601562 4.609375 C 9.46875 4.613281 9.421875 4.683594 9.375 4.800781 L 9.40625 4.894531 L 9.535156 4.992188 L 9.726562 4.992188 L 9.726562 4.894531 L 9.761719 4.894531 C 9.800781 4.992188 9.972656 4.605469 9.726562 4.640625 C 9.6875 4.574219 9.660156 4.546875 9.601562 4.609375 M 9.855469 4.542969 L 9.886719 4.574219 Z M 9.855469 4.542969 "/>
<path style=" stroke:none;fill-rule:nonzero;fill:rgb(57.254902%,87.45098%,93.333333%);fill-opacity:1;" d="M 9.566406 4.574219 L 9.601562 4.609375 L 9.566406 4.574219 M 9.664062 4.574219 L 9.695312 4.609375 Z M 9.664062 4.574219 "/>
<path style=" stroke:none;fill-rule:nonzero;fill:rgb(30.980392%,52.156863%,90.196078%);fill-opacity:1;" d="M 9.738281 4.597656 L 9.75 4.617188 Z M 9.738281 4.597656 "/>
<path style=" stroke:none;fill-rule:nonzero;fill:rgb(34.901961%,41.568627%,41.568627%);fill-opacity:1;" d="M 10.304688 4.574219 L 10.304688 4.734375 C 10.390625 4.679688 10.390625 4.632812 10.304688 4.574219 M 9.246094 4.609375 L 9.28125 4.640625 L 9.246094 4.609375 M 10.003906 4.617188 L 10.027344 4.628906 Z M 10.003906 4.617188 "/>
<path style=" stroke:none;fill-rule:nonzero;fill:rgb(57.254902%,87.45098%,93.333333%);fill-opacity:1;" d="M 10.273438 4.609375 L 10.335938 4.703125 Z M 10.273438 4.609375 "/>
<path style=" stroke:none;fill-rule:nonzero;fill:rgb(34.901961%,41.568627%,41.568627%);fill-opacity:1;" d="M 9.128906 4.660156 L 9.140625 4.683594 L 9.128906 4.660156 M 9.332031 4.652344 L 9.355469 4.660156 Z M 9.332031 4.652344 "/>
<path style=" stroke:none;fill-rule:nonzero;fill:rgb(57.254902%,87.45098%,93.333333%);fill-opacity:1;" d="M 9.441406 4.640625 L 9.472656 4.671875 L 9.441406 4.640625 M 9.515625 4.660156 L 9.523438 4.683594 Z M 9.515625 4.660156 "/>
<path style=" stroke:none;fill-rule:nonzero;fill:rgb(30.980392%,52.156863%,90.196078%);fill-opacity:1;" d="M 9.675781 4.660156 L 9.683594 4.683594 Z M 9.675781 4.660156 "/>
<path style=" stroke:none;fill-rule:nonzero;fill:rgb(34.901961%,41.568627%,41.568627%);fill-opacity:1;" d="M 9.921875 4.640625 L 9.953125 4.671875 L 9.921875 4.640625 M 10.238281 4.640625 L 10.273438 4.671875 Z M 10.238281 4.640625 "/>
<path style=" stroke:none;fill-rule:nonzero;fill:rgb(30.980392%,52.156863%,90.196078%);fill-opacity:1;" d="M 9.792969 4.671875 L 9.824219 4.703125 Z M 9.792969 4.671875 "/>
<path style=" stroke:none;fill-rule:nonzero;fill:rgb(98.431373%,97.647059%,98.039216%);fill-opacity:1;" d="M 10.273438 4.671875 L 10.304688 4.703125 Z M 10.273438 4.671875 "/>
<path style=" stroke:none;fill-rule:nonzero;fill:rgb(57.254902%,87.45098%,93.333333%);fill-opacity:1;" d="M 9.441406 4.703125 L 9.472656 4.734375 L 9.441406 4.703125 M 9.726562 4.703125 L 9.761719 4.734375 L 9.726562 4.703125 M 9.792969 4.703125 L 9.824219 4.734375 Z M 9.792969 4.703125 "/>
<path style=" stroke:none;fill-rule:nonzero;fill:rgb(98.431373%,97.647059%,98.039216%);fill-opacity:1;" d="M 10.207031 4.703125 L 10.238281 4.734375 Z M 10.207031 4.703125 "/>
<path style=" stroke:none;fill-rule:nonzero;fill:rgb(34.901961%,41.568627%,41.568627%);fill-opacity:1;" d="M 9.214844 4.734375 L 9.214844 4.769531 L 9.3125 4.769531 Z M 9.214844 4.734375 "/>
<path style=" stroke:none;fill-rule:nonzero;fill:rgb(30.980392%,52.156863%,90.196078%);fill-opacity:1;" d="M 9.441406 4.734375 L 9.472656 4.769531 L 9.441406 4.734375 M 9.792969 4.734375 L 9.824219 4.769531 L 9.792969 4.734375 M 9.503906 4.769531 L 9.472656 4.832031 L 9.535156 4.832031 Z M 9.503906 4.769531 "/>
<path style=" stroke:none;fill-rule:nonzero;fill:rgb(57.254902%,87.45098%,93.333333%);fill-opacity:1;" d="M 9.601562 4.769531 L 9.632812 4.800781 L 9.601562 4.769531 M 9.695312 4.769531 L 9.726562 4.800781 Z M 9.695312 4.769531 "/>
<path style=" stroke:none;fill-rule:nonzero;fill:rgb(34.901961%,41.568627%,41.568627%);fill-opacity:1;" d="M 9.984375 4.769531 L 10.015625 4.800781 Z M 9.984375 4.769531 "/>
<path style=" stroke:none;fill-rule:nonzero;fill:rgb(30.980392%,52.156863%,90.196078%);fill-opacity:1;" d="M 9.417969 4.820312 L 9.429688 4.84375 Z M 9.417969 4.820312 "/>
<path style=" stroke:none;fill-rule:nonzero;fill:rgb(57.254902%,87.45098%,93.333333%);fill-opacity:1;" d="M 9.769531 4.820312 L 9.78125 4.84375 Z M 9.769531 4.820312 "/>
<path style=" stroke:none;fill-rule:nonzero;fill:rgb(30.980392%,52.156863%,90.196078%);fill-opacity:1;" d="M 9.824219 4.832031 L 9.855469 4.863281 Z M 9.824219 4.832031 "/>
<path style=" stroke:none;fill-rule:nonzero;fill:rgb(34.901961%,41.568627%,41.568627%);fill-opacity:1;" d="M 9.214844 4.894531 L 9.214844 4.929688 L 9.34375 4.894531 Z M 9.214844 4.894531 "/>
<path style=" stroke:none;fill-rule:nonzero;fill:rgb(57.254902%,87.45098%,93.333333%);fill-opacity:1;" d="M 9.449219 4.886719 L 9.460938 4.90625 L 9.449219 4.886719 M 9.578125 4.886719 L 9.589844 4.90625 L 9.578125 4.886719 M 9.664062 4.863281 L 9.695312 4.894531 Z M 9.664062 4.863281 "/>
<path style=" stroke:none;fill-rule:nonzero;fill:rgb(98.431373%,97.647059%,98.039216%);fill-opacity:1;" d="M 8.960938 4.894531 L 9.023438 4.960938 L 9.023438 4.894531 Z M 8.960938 4.894531 "/>
<path style=" stroke:none;fill-rule:nonzero;fill:rgb(57.254902%,87.45098%,93.333333%);fill-opacity:1;" d="M 9.738281 4.917969 L 9.75 4.9375 Z M 9.738281 4.917969 "/>
<path style=" stroke:none;fill-rule:nonzero;fill:rgb(34.901961%,41.568627%,41.568627%);fill-opacity:1;" d="M 9.886719 4.894531 L 9.984375 4.960938 L 9.984375 4.929688 L 9.886719 4.894531 M 10.101562 4.90625 L 10.121094 4.917969 Z M 10.101562 4.90625 "/>
<path style=" stroke:none;fill-rule:nonzero;fill:rgb(98.431373%,97.647059%,98.039216%);fill-opacity:1;" d="M 8.894531 4.929688 L 8.894531 5.023438 L 8.929688 5.023438 Z M 8.894531 4.929688 "/>
<path style=" stroke:none;fill-rule:nonzero;fill:rgb(30.980392%,52.156863%,90.196078%);fill-opacity:1;" d="M 9.472656 4.929688 L 9.535156 4.992188 Z M 9.472656 4.929688 "/>
<path style=" stroke:none;fill-rule:nonzero;fill:rgb(57.254902%,87.45098%,93.333333%);fill-opacity:1;" d="M 9.503906 4.929688 L 9.535156 4.960938 Z M 9.503906 4.929688 "/>
<path style=" stroke:none;fill-rule:nonzero;fill:rgb(30.980392%,52.156863%,90.196078%);fill-opacity:1;" d="M 9.664062 4.929688 L 9.695312 4.960938 Z M 9.664062 4.929688 "/>
<path style=" stroke:none;fill-rule:nonzero;fill:rgb(57.254902%,87.45098%,93.333333%);fill-opacity:1;" d="M 8.929688 4.960938 L 8.929688 5.054688 L 8.992188 5.054688 L 8.992188 4.960938 Z M 8.929688 4.960938 "/>
<path style=" stroke:none;fill-rule:nonzero;fill:rgb(34.901961%,41.568627%,41.568627%);fill-opacity:1;" d="M 8.992188 4.960938 L 8.929688 5.054688 L 8.929688 5.089844 L 9.089844 4.960938 Z M 8.992188 4.960938 "/>
<path style=" stroke:none;fill-rule:nonzero;fill:rgb(57.254902%,87.45098%,93.333333%);fill-opacity:1;" d="M 9.566406 4.960938 L 9.601562 4.992188 Z M 9.566406 4.960938 "/>
<path style=" stroke:none;fill-rule:nonzero;fill:rgb(30.980392%,52.156863%,90.196078%);fill-opacity:1;" d="M 9.601562 4.960938 L 9.632812 4.992188 Z M 9.601562 4.960938 "/>
<path style=" stroke:none;fill-rule:nonzero;fill:rgb(57.254902%,87.45098%,93.333333%);fill-opacity:1;" d="M 9.664062 4.960938 L 9.695312 4.992188 Z M 9.664062 4.960938 "/>
<path style=" stroke:none;fill-rule:nonzero;fill:rgb(98.431373%,97.647059%,98.039216%);fill-opacity:1;" d="M 8.960938 4.992188 L 8.992188 5.023438 Z M 8.960938 4.992188 "/>
<path style=" stroke:none;fill-rule:nonzero;fill:rgb(34.901961%,41.568627%,41.568627%);fill-opacity:1;" d="M 9.332031 5.003906 L 9.355469 5.011719 L 9.332031 5.003906 M 9.824219 4.992188 L 9.921875 5.089844 L 9.824219 4.992188 M 9.472656 5.023438 L 9.441406 5.089844 L 9.472656 5.023438 M 9.726562 5.054688 L 9.761719 5.183594 L 9.792969 5.183594 L 9.726562 5.054688 M 9.601562 5.089844 L 9.632812 5.121094 L 9.601562 5.089844 M 9.460938 5.324219 L 9.484375 5.332031 L 9.460938 5.324219 M 9.761719 5.503906 L 9.824219 5.375 C 9.703125 5.359375 9.644531 5.429688 9.761719 5.503906 Z M 9.761719 5.503906 "/>
<path style=" stroke:none;fill-rule:nonzero;fill:rgb(98.431373%,97.647059%,98.039216%);fill-opacity:1;" d="M 9.835938 5.398438 L 9.84375 5.417969 Z M 9.835938 5.398438 "/>
<path style=" stroke:none;fill-rule:nonzero;fill:rgb(57.254902%,87.45098%,93.333333%);fill-opacity:1;" d="M 9.761719 5.40625 L 9.761719 5.503906 L 9.792969 5.503906 L 9.824219 5.40625 Z M 9.761719 5.40625 "/>
<path style=" stroke:none;fill-rule:nonzero;fill:rgb(98.431373%,97.647059%,98.039216%);fill-opacity:1;" d="M 9.761719 5.441406 L 9.792969 5.472656 L 9.761719 5.441406 M 9.867188 5.460938 L 9.878906 5.484375 L 9.867188 5.460938 M 9.800781 5.492188 L 9.8125 5.515625 Z M 9.800781 5.492188 "/>
<path style=" stroke:none;fill-rule:nonzero;fill:rgb(57.254902%,87.45098%,93.333333%);fill-opacity:1;" d="M 6.078125 6.101562 C 5.875 6.113281 5.367188 6.394531 5.671875 6.628906 C 5.84375 6.757812 6.050781 6.558594 6.238281 6.613281 C 6.503906 6.6875 6.679688 6.875 6.976562 6.84375 C 7.214844 6.816406 7.414062 6.585938 7.648438 6.601562 C 7.9375 6.621094 8.132812 6.871094 8.449219 6.84375 C 8.683594 6.820312 8.859375 6.617188 9.089844 6.601562 C 9.523438 6.574219 9.835938 7.09375 10.296875 6.695312 C 10.425781 6.582031 10.441406 6.324219 10.238281 6.285156 C 10.074219 6.25 9.929688 6.394531 9.761719 6.34375 C 9.589844 6.292969 9.460938 6.15625 9.28125 6.121094 C 8.902344 6.054688 8.675781 6.375 8.351562 6.359375 C 8.050781 6.34375 7.855469 6.09375 7.519531 6.113281 C 7.277344 6.128906 7.085938 6.386719 6.847656 6.351562 C 6.570312 6.3125 6.386719 6.089844 6.078125 6.101562 Z M 6.078125 6.101562 "/>
<path style=" stroke:none;fill-rule:nonzero;fill:rgb(98.431373%,97.647059%,98.039216%);fill-opacity:1;" d="M 6.015625 6.257812 C 5.957031 6.269531 5.574219 6.476562 5.769531 6.535156 C 5.921875 6.574219 6.066406 6.382812 6.238281 6.425781 C 6.464844 6.488281 6.597656 6.699219 6.847656 6.714844 C 7.148438 6.730469 7.3125 6.460938 7.585938 6.421875 C 7.867188 6.375 8.0625 6.714844 8.351562 6.714844 C 8.644531 6.714844 8.816406 6.429688 9.089844 6.417969 C 9.476562 6.394531 9.816406 6.992188 10.230469 6.574219 C 10.269531 6.535156 10.308594 6.449219 10.230469 6.425781 C 10.101562 6.382812 9.945312 6.542969 9.792969 6.515625 C 9.554688 6.476562 9.402344 6.261719 9.152344 6.242188 C 8.847656 6.222656 8.714844 6.476562 8.449219 6.519531 C 8.144531 6.570312 7.949219 6.25 7.648438 6.242188 C 7.351562 6.234375 7.1875 6.511719 6.910156 6.523438 C 6.574219 6.539062 6.390625 6.171875 6.015625 6.257812 Z M 6.015625 6.257812 "/>
<path style=" stroke:none;fill-rule:nonzero;fill:rgb(57.254902%,87.45098%,93.333333%);fill-opacity:1;" d="M 5.664062 7.183594 C 5.476562 7.214844 5.027344 7.460938 5.292969 7.691406 C 5.453125 7.832031 5.652344 7.644531 5.824219 7.675781 C 6.074219 7.714844 6.253906 7.929688 6.527344 7.929688 C 6.804688 7.929688 6.980469 7.699219 7.230469 7.671875 C 7.480469 7.644531 7.707031 7.914062 7.96875 7.929688 C 8.265625 7.949219 8.464844 7.679688 8.734375 7.671875 C 8.976562 7.660156 9.183594 7.914062 9.441406 7.929688 C 9.722656 7.945312 9.894531 7.742188 10.144531 7.679688 C 10.328125 7.632812 10.539062 7.828125 10.707031 7.6875 C 11.027344 7.414062 10.378906 7.164062 10.175781 7.175781 C 9.917969 7.191406 9.714844 7.441406 9.472656 7.433594 C 9.183594 7.421875 8.988281 7.144531 8.671875 7.183594 C 8.429688 7.210938 8.226562 7.429688 8 7.433594 C 7.730469 7.4375 7.527344 7.160156 7.230469 7.175781 C 6.96875 7.1875 6.773438 7.429688 6.527344 7.433594 C 6.21875 7.4375 6.007812 7.121094 5.664062 7.183594 Z M 5.664062 7.183594 "/>
<path style=" stroke:none;fill-rule:nonzero;fill:rgb(98.431373%,97.647059%,98.039216%);fill-opacity:1;" d="M 5.375 7.648438 C 5.523438 7.601562 5.660156 7.480469 5.824219 7.5 C 6.101562 7.535156 6.253906 7.789062 6.558594 7.773438 C 6.828125 7.761719 6.984375 7.527344 7.230469 7.5 C 7.484375 7.476562 7.660156 7.738281 7.902344 7.769531 C 8.253906 7.8125 8.425781 7.5 8.734375 7.5 C 8.976562 7.5 9.136719 7.738281 9.375 7.769531 C 9.71875 7.8125 9.847656 7.570312 10.144531 7.503906 C 10.3125 7.46875 10.402344 7.601562 10.554688 7.613281 C 10.625 7.617188 10.652344 7.550781 10.621094 7.492188 C 10.351562 6.984375 9.746094 7.644531 9.441406 7.605469 C 9.160156 7.566406 9.007812 7.316406 8.703125 7.328125 C 8.425781 7.339844 8.242188 7.640625 7.96875 7.605469 C 7.679688 7.566406 7.519531 7.3125 7.199219 7.328125 C 6.941406 7.34375 6.78125 7.613281 6.527344 7.605469 C 6.449219 7.605469 6.371094 7.574219 6.304688 7.535156 C 6.113281 7.429688 5.253906 7.097656 5.375 7.648438 Z M 5.375 7.648438 "/>
<path style=" stroke:none;fill-rule:nonzero;fill:rgb(87.843137%,40%,90.196078%);fill-opacity:1;" d="M 8.351562 11.679688 C 8.683594 11.710938 8.902344 11.285156 9.183594 11.132812 C 9.5625 10.925781 9.984375 10.945312 10.398438 10.945312 L 10.398438 9.695312 C 10.398438 9.558594 10.355469 9.3125 10.433594 9.195312 C 10.519531 9.066406 10.8125 9.121094 10.945312 9.121094 L 12.257812 9.121094 C 12.378906 9.121094 12.621094 9.074219 12.714844 9.171875 C 12.855469 9.308594 12.769531 9.800781 12.769531 9.984375 L 12.769531 11.808594 C 12.769531 12.023438 12.835938 12.375 12.75 12.570312 C 12.699219 12.6875 12.554688 12.671875 12.449219 12.671875 L 9.246094 12.671875 C 9.027344 12.671875 8.546875 12.761719 8.363281 12.640625 C 8.230469 12.550781 8.316406 12.320312 8.320312 12.191406 L 8.160156 12.160156 C 8.113281 12.359375 8.070312 12.679688 8.289062 12.792969 C 8.53125 12.921875 9.007812 12.832031 9.28125 12.832031 L 11.679688 12.832031 C 11.972656 12.832031 12.746094 12.972656 12.902344 12.667969 C 13.027344 12.433594 12.960938 12.0625 12.960938 11.808594 L 12.960938 9.886719 C 12.960938 9.644531 13.039062 9.226562 12.851562 9.039062 C 12.703125 8.890625 12.445312 8.929688 12.257812 8.929688 L 11.039062 8.929688 C 10.847656 8.929688 10.613281 8.890625 10.433594 8.964844 C 10.21875 9.050781 10.207031 9.273438 10.207031 9.472656 C 10.207031 9.769531 10.328125 10.390625 10.171875 10.648438 C 10.058594 10.832031 9.570312 10.792969 9.375 10.855469 C 8.921875 10.996094 8.582031 11.269531 8.351562 11.679688 Z M 8.351562 11.679688 "/>
<path style=" stroke:none;fill-rule:nonzero;fill:rgb(98.431373%,97.647059%,98.039216%);fill-opacity:1;" d="M 10.398438 10.945312 C 9.71875 10.945312 8.9375 10.984375 8.574219 11.679688 L 9.375 11.226562 L 10.113281 11.105469 L 10.507812 11.070312 L 10.558594 10.625 L 10.558594 9.28125 L 12.609375 9.28125 L 12.609375 12.511719 L 9.441406 12.511719 C 9.15625 12.511719 8.441406 12.660156 8.480469 12.257812 L 8.320312 12.257812 C 8.300781 12.363281 8.234375 12.589844 8.363281 12.652344 C 8.589844 12.765625 9.0625 12.671875 9.3125 12.671875 L 12.480469 12.671875 C 12.566406 12.671875 12.703125 12.691406 12.75 12.597656 C 12.839844 12.414062 12.769531 12.042969 12.769531 11.839844 L 12.769531 9.984375 C 12.769531 9.796875 12.855469 9.320312 12.734375 9.171875 C 12.652344 9.066406 12.34375 9.121094 12.222656 9.121094 L 10.878906 9.121094 C 10.769531 9.121094 10.511719 9.074219 10.433594 9.171875 C 10.351562 9.273438 10.398438 9.539062 10.398438 9.664062 Z M 10.398438 10.945312 "/>
<path style=" stroke:none;fill-rule:nonzero;fill:rgb(87.843137%,40%,90.196078%);fill-opacity:1;" d="M 10.558594 9.28125 L 10.558594 10.59375 C 10.558594 10.714844 10.605469 10.957031 10.507812 11.050781 C 10.390625 11.171875 10.042969 11.097656 9.886719 11.105469 C 9.476562 11.125 8.953125 11.316406 8.769531 11.710938 C 9.121094 11.644531 9.367188 11.375 9.726562 11.3125 C 10 11.261719 10.503906 11.410156 10.679688 11.128906 C 10.863281 10.835938 10.753906 10.253906 10.753906 9.921875 C 10.753906 9.761719 10.722656 9.542969 10.914062 9.484375 C 11.238281 9.390625 11.695312 9.472656 12.03125 9.472656 C 12.152344 9.472656 12.3125 9.457031 12.382812 9.574219 C 12.453125 9.6875 12.414062 9.886719 12.414062 10.015625 L 12.414062 11.070312 C 12.414062 11.355469 12.554688 12.019531 12.359375 12.242188 C 12.203125 12.421875 11.613281 12.320312 11.390625 12.320312 C 10.425781 12.320312 9.449219 12.378906 8.511719 12.191406 C 8.332031 12.675781 9.101562 12.511719 9.40625 12.511719 L 12.609375 12.511719 L 12.609375 9.28125 Z M 10.558594 9.28125 "/>
<path style=" stroke:none;fill-rule:nonzero;fill:rgb(98.431373%,97.647059%,98.039216%);fill-opacity:1;" d="M 9.023438 11.679688 L 12.414062 11.679688 L 12.414062 10.144531 C 12.414062 9.988281 12.472656 9.683594 12.382812 9.550781 C 12.3125 9.445312 12.140625 9.472656 12.03125 9.472656 L 11.136719 9.472656 C 11.027344 9.472656 10.859375 9.445312 10.789062 9.550781 C 10.503906 9.964844 11.035156 10.800781 10.613281 11.183594 C 10.421875 11.351562 10.089844 11.289062 9.855469 11.296875 C 9.546875 11.304688 9.214844 11.433594 9.023438 11.679688 Z M 9.023438 11.679688 "/>
<path style=" stroke:none;fill-rule:nonzero;fill:rgb(57.254902%,87.45098%,93.333333%);fill-opacity:1;" d="M 8.128906 12.257812 L 8.320312 11.679688 C 8.007812 11.703125 7.960938 12.03125 8.128906 12.257812 Z M 8.128906 12.257812 "/>
<path style=" stroke:none;fill-rule:nonzero;fill:rgb(30.980392%,52.156863%,90.196078%);fill-opacity:1;" d="M 8.351562 12.128906 L 8.480469 12.222656 C 9.257812 12.179688 10.03125 12.160156 10.816406 12.160156 C 11.363281 12.160156 11.917969 12.207031 12.449219 12.0625 C 12.433594 11.648438 11.84375 11.742188 11.550781 11.742188 C 10.796875 11.742188 10.035156 11.757812 9.28125 11.742188 C 8.996094 11.738281 8.632812 11.621094 8.351562 11.699219 C 8.011719 11.792969 8.183594 12.3125 8.351562 12.128906 Z M 8.351562 12.128906 "/>
<path style=" stroke:none;fill-rule:nonzero;fill:rgb(57.254902%,87.45098%,93.333333%);fill-opacity:1;" d="M 8.542969 11.679688 L 8.542969 11.742188 L 8.734375 11.710938 L 8.542969 11.679688 M 9.023438 11.679688 L 9.023438 11.710938 C 9.269531 11.785156 9.566406 11.742188 9.824219 11.742188 C 10.625 11.742188 11.671875 11.566406 12.414062 11.871094 C 12.457031 11.5625 11.855469 11.679688 11.648438 11.679688 L 9.023438 11.679688 M 8.257812 11.871094 L 8.222656 11.9375 Z M 8.257812 11.871094 "/>
<path style=" stroke:none;fill-rule:nonzero;fill:rgb(98.431373%,97.647059%,98.039216%);fill-opacity:1;" d="M 8.222656 11.9375 L 8.222656 11.96875 C 8.484375 12.105469 8.894531 12.03125 9.183594 12.03125 L 11.359375 12.03125 C 11.574219 12.03125 12.210938 12.140625 12.289062 11.902344 C 11.964844 11.828125 11.59375 11.871094 11.265625 11.871094 L 9.34375 11.871094 C 9.015625 11.871094 8.515625 11.78125 8.222656 11.9375 Z M 8.222656 11.9375 "/>
<path style=" stroke:none;fill-rule:nonzero;fill:rgb(57.254902%,87.45098%,93.333333%);fill-opacity:1;" d="M 12.222656 11.871094 L 12.257812 11.902344 L 12.222656 11.871094 M 8.222656 11.96875 L 8.257812 12 L 8.222656 11.96875 M 8.257812 12 L 8.289062 12.03125 L 8.257812 12 M 8.734375 12.257812 L 11.550781 12.257812 C 11.789062 12.257812 12.390625 12.378906 12.414062 12.0625 C 11.574219 12.292969 10.570312 12.160156 9.695312 12.160156 C 9.46875 12.160156 8.878906 12.054688 8.734375 12.257812 M 8.351562 12.128906 L 8.320312 12.257812 L 8.511719 12.160156 Z M 8.351562 12.128906 "/>
<path style=" stroke:none;fill-rule:nonzero;fill:rgb(98.431373%,97.647059%,98.039216%);fill-opacity:1;" d="M 8.734375 12.257812 L 8.734375 12.289062 C 9.257812 12.414062 9.894531 12.320312 10.433594 12.320312 C 11.046875 12.320312 11.785156 12.429688 12.382812 12.289062 L 11.265625 12.257812 Z M 8.734375 12.257812 "/>
<path style=" stroke:none;fill-rule:nonzero;fill:rgb(87.843137%,40%,90.196078%);fill-opacity:1;" d="M 2.71875 15.070312 C 2.824219 15.429688 3.609375 15.488281 3.726562 15.101562 C 3.882812 14.605469 3.1875 14.714844 2.984375 14.488281 C 2.796875 14.273438 3.144531 14.113281 3.328125 14.164062 C 3.46875 14.203125 3.53125 14.339844 3.679688 14.335938 C 3.515625 14.035156 2.699219 13.992188 2.769531 14.464844 C 2.824219 14.859375 3.394531 14.664062 3.558594 14.949219 C 3.640625 15.097656 3.457031 15.242188 3.328125 15.277344 C 3.09375 15.34375 2.902344 15.191406 2.71875 15.070312 M 4.414062 15.296875 L 4.414062 15.328125 L 4.769531 15.328125 L 4.769531 15.296875 C 4.433594 15.097656 5.113281 14.992188 5.277344 15.058594 C 5.394531 15.109375 5.410156 15.230469 5.3125 15.296875 L 5.3125 15.328125 L 5.761719 15.328125 L 5.761719 15.296875 C 5.410156 15.175781 5.269531 14.425781 5.121094 14.113281 C 4.714844 14.328125 4.847656 15.082031 4.414062 15.296875 M 6.433594 14.113281 L 6.433594 14.144531 C 6.675781 14.292969 6.632812 15.144531 6.398438 15.296875 L 6.398438 15.328125 L 6.753906 15.328125 L 6.753906 15.296875 C 6.527344 15.09375 6.625 14.621094 6.625 14.335938 L 6.65625 14.335938 C 6.683594 14.484375 6.894531 15.179688 7.074219 15.179688 C 7.257812 15.179688 7.453125 14.492188 7.488281 14.335938 L 7.519531 14.335938 C 7.519531 14.605469 7.617188 15.09375 7.425781 15.296875 L 7.425781 15.328125 L 7.808594 15.328125 L 7.808594 15.296875 L 7.679688 15.265625 C 7.679688 14.992188 7.554688 14.300781 7.808594 14.144531 L 7.808594 14.113281 C 7.402344 14.113281 7.230469 14.675781 7.167969 15.039062 C 6.871094 14.742188 6.945312 14.113281 6.433594 14.113281 M 8.480469 14.113281 L 8.480469 14.144531 C 8.667969 14.316406 8.722656 15.160156 8.480469 15.296875 L 8.480469 15.328125 L 8.863281 15.328125 L 8.863281 15.296875 C 8.652344 15.085938 8.769531 14.460938 8.769531 14.175781 C 8.933594 14.175781 9.105469 14.164062 9.246094 14.265625 C 9.652344 14.570312 9.136719 14.878906 8.832031 14.878906 L 8.832031 14.945312 C 9.175781 14.945312 9.945312 14.628906 9.40625 14.230469 C 9.160156 14.046875 8.765625 14.113281 8.480469 14.113281 M 10.207031 14.113281 L 10.207031 14.144531 C 10.429688 14.265625 10.421875 15.164062 10.207031 15.296875 L 10.207031 15.328125 L 11.230469 15.328125 L 11.230469 15.070312 L 11.199219 15.070312 C 11.03125 15.324219 10.769531 15.265625 10.496094 15.265625 C 10.496094 14.992188 10.371094 14.300781 10.625 14.144531 L 10.207031 14.113281 M 11.9375 14.113281 L 11.9375 14.144531 C 12.199219 14.265625 12.839844 15.0625 12.414062 15.296875 L 12.414062 15.328125 L 12.800781 15.328125 L 12.800781 15.296875 C 12.371094 15.058594 13.015625 14.269531 13.28125 14.144531 L 13.28125 14.113281 L 12.960938 14.113281 L 12.960938 14.144531 L 13.054688 14.175781 L 12.671875 14.753906 L 12.640625 14.753906 L 12.257812 14.175781 L 12.382812 14.144531 Z M 11.9375 14.113281 "/>
<path style=" stroke:none;fill-rule:nonzero;fill:rgb(98.431373%,97.647059%,98.039216%);fill-opacity:1;" d="M 4.992188 14.335938 L 4.734375 15.007812 L 5.3125 15.007812 C 5.265625 14.808594 5.164062 14.453125 4.992188 14.335938 Z M 4.992188 14.335938 "/>
</g>
</svg>
